<svg width="50" height="50" viewBox="0 0 50 50" fill="none" xmlns="http://www.w3.org/2000/svg">
<path fill-rule="evenodd" clip-rule="evenodd" d="M25 0C11.1929 0 0 11.1929 0 25C0 38.8071 11.1929 50 25 50C38.8071 50 50 38.8071 50 25C50 18.3696 47.3661 12.0107 42.6777 7.32233C37.9893 2.63392 31.6304 0 25 0ZM44.1334 12.2588C46.0032 15.068 47.2277 18.2563 47.7192 21.5948L46.513 22.0348L42.4544 18.1914L43.093 12.6386L44.1334 12.2588ZM30 3.4706V2.5634C26.709 1.8121 23.291 1.8121 20 2.5634V3.4708L25 5.9706L30 3.4706ZM5.8666 12.2588L6.9066 12.6388L7.5452 18.1916L3.4876 22.0352L2.2806 21.5952C2.772 18.2565 3.99665 15.068 5.8666 12.2588ZM6.552 38.6778C8.55586 41.3873 11.1273 43.6265 14.0866 45.2388L15.2768 43.8868L13.06 38.7736L7.6108 37.4708L6.552 38.6778ZM35.9022 45.2446L34.7204 43.8882L36.9392 38.773L42.3942 37.4702L43.4526 38.6714C41.4453 41.3872 38.8681 43.6309 35.9018 45.2452L35.9022 45.2446ZM42.5134 35.3842C42.873 35.3007 43.2496 35.4197 43.4958 35.6948L44.6092 36.9582C46.8238 33.3622 47.9976 29.2224 48 24.9992C48 24.6672 47.9777 24.3408 47.9554 24.0141V24.014L47.9554 24.0138C47.947 23.8909 47.9386 23.7681 47.9314 23.6448L46.6166 24.1248C46.5071 24.1649 46.3914 24.1852 46.2748 24.1848C46.0192 24.1845 45.7733 24.0867 45.5872 23.9114L40.7162 19.3C40.4879 19.0836 40.3744 18.7726 40.4096 18.46L41.175 11.7968C41.2182 11.42 41.4708 11.1 41.8274 10.9706L42.894 10.582C40.0707 7.07775 36.2838 4.47608 32 3.0976V4.0878C31.9996 4.46645 31.7858 4.81253 31.4474 4.9824L25.4474 7.9824C25.1658 8.12303 24.8344 8.12303 24.5528 7.9824L18.5528 4.9824C18.2143 4.81259 18.0005 4.46649 18 4.0878V3.0976C13.7162 4.47598 9.92926 7.07767 7.106 10.582L8.1712 10.97C8.52663 11.0998 8.77886 11.4185 8.8236 11.7942L9.5912 18.4582C9.62677 18.7714 9.51324 19.0831 9.2846 19.3L4.4136 23.9122C4.22753 24.0875 3.98164 24.1853 3.726 24.1856C3.60941 24.186 3.49369 24.1657 3.3842 24.1256L2.0686 23.6456C2.06139 23.7687 2.05301 23.8915 2.04463 24.0142C2.02231 24.3411 2 24.6677 2 25C2.00243 29.2254 3.17765 33.3672 5.3948 36.9642L6.5034 35.6986C6.74864 35.4206 7.12681 35.2998 7.4878 35.3842L14.0112 36.9428C14.3174 37.0157 14.5713 37.2284 14.6968 37.517L17.3648 43.6712C17.5186 44.0268 17.4531 44.4393 17.1968 44.7298L15.9552 46.14C21.7269 48.6175 28.2622 48.6192 34.0352 46.1448L32.7984 44.7258C32.545 44.4353 32.4812 44.025 32.6344 43.6712L35.3024 37.517C35.4273 37.228 35.6815 37.015 35.988 36.9428L42.5134 35.3842ZM25.6236 16.2138C25.2567 15.9286 24.7431 15.9286 24.3762 16.2138L16.3922 22.419C16.0686 22.6705 15.928 23.092 16.0358 23.4874L18.701 33.252C18.8217 33.6937 19.2231 34.0001 19.681 34H30.32C30.7779 34 31.1792 33.6937 31.3 33.252L33.9652 23.4874C34.0731 23.092 33.9325 22.6705 33.6088 22.419L25.6236 16.2138ZM18.1384 23.5948L20.4324 32H29.5676L31.8616 23.5948L25 18.2618L18.1384 23.5948Z" fill="#26BA7E"/>
</svg>
