<svg width="42" height="48" viewBox="0 0 42 48" fill="none" xmlns="http://www.w3.org/2000/svg">
<path fill-rule="evenodd" clip-rule="evenodd" d="M38 23C37.9879 24.0342 37.8392 25.0622 37.5578 26.0574C40.08 26.3355 41.9917 28.4625 42 31C42 33.542 36.9296 45.1124 35.914 47.4052C35.7538 47.7668 35.3955 47.9999 35 48H7C6.60452 47.9999 6.24625 47.7668 6.086 47.4052C5.0704 45.1114 0 33.541 0 31C0.0047336 29.4333 0.746443 27.9602 2.0022 27.0234L2 27C2 24.5292 3.6622 22.9306 6.1738 21.7374C4.81987 19.7457 4.06546 17.4075 4 15C4 10.4718 8.62094 9.27345 11.9978 8.39775L12.0022 8.3966L12.0042 8.39609C13.7747 7.93722 15.7791 7.41772 16.0622 6.6544C16.4879 4.85125 15.8416 2.96375 14.4 1.8C14.0557 1.54174 13.9152 1.09211 14.0513 0.683772C14.1874 0.27543 14.5696 0 15 0C26.0722 0 30 5.9268 30 11C29.9957 11.5369 29.9275 12.0713 29.7968 12.592C34.4554 13.98 37.7389 18.1461 38 23ZM12.502 10.334C8.6954 11.32 6 12.2314 6 15C6.04876 16.9432 6.62971 18.8359 7.6796 20.4718C7.91151 20.5425 8.10951 20.6957 8.2362 20.9024C10.1567 20.2272 12.3606 19.6794 14.6083 19.1208L14.6084 19.1208L14.6084 19.1208L14.6084 19.1208L14.6085 19.1208L14.6542 19.1094L14.6554 19.1091C21.2157 17.4822 28 15.7997 28 11C28 7.1894 25.1308 2.791 17.2364 2.0956C18.221 3.66126 18.4769 5.57744 17.9376 7.3466C17.295 9.0928 15.0742 9.668 12.502 10.334ZM7.6524 46C5.3614 40.7852 2 32.5762 2 31C2 29.3431 3.34315 28 5 28C6.65685 28 8 29.3431 8 31C8 31.0362 10.98 46 10.98 46H7.6524ZM10.0068 30.9346L13.02 46H17.4962C17.4962 46 16 31.02 16 31C15.998 29.359 14.6766 28.0248 13.0357 28.0069C11.3948 27.989 10.0447 29.2941 10.0068 30.9346ZM22.4964 46H19.5044L18.0022 30.98C18.0032 29.3242 19.3462 27.9828 21.002 27.9838C22.6577 27.9848 23.9992 29.3279 23.9982 30.9836L22.4964 46ZM17 28.003C17.9434 26.7425 19.4256 26.0003 21 26C22.5744 26.0003 24.0566 26.7425 25 28.003C25.9425 26.7378 27.4293 25.9946 29.007 26.0001C30.5846 26.0055 32.0662 26.7589 33 28.0306C33.6062 27.2298 34.4383 26.6287 35.389 26.3048C35.7798 25.2461 35.9865 24.1284 36 23C35.7858 18.9346 32.964 15.4759 29.0244 14.4498C26.7146 18.165 20.6432 19.6844 15.1368 21.0498C10.0072 22.3226 5.183 23.5494 4.223 26.0786C4.47952 26.032 4.73933 26.0057 5 26C6.57996 26.004 8.06427 26.7575 9 28.0306C9.93377 26.7589 11.4154 26.0055 12.993 26.0001C14.5707 25.9946 16.0575 26.7378 17 28.003ZM28.98 46H24.5046C24.5046 46 26 31.02 26 31C25.9898 29.3501 27.3152 28.0023 28.965 27.9847C30.6149 27.9672 31.9686 29.2864 31.9936 30.9362L28.98 46ZM31.02 46H34.3468H34.3476C36.6386 40.7852 40 32.5762 40 31C40 29.3431 38.6569 28 37 28C35.3431 28 34 29.3431 34 31C34 31.0348 31.02 46 31.02 46Z" fill="#26BA7E"/>
</svg>
