<svg width="46" height="50" viewBox="0 0 46 50" fill="none" xmlns="http://www.w3.org/2000/svg">
<path fill-rule="evenodd" clip-rule="evenodd" d="M45 6H38V1C38 0.447715 37.5523 0 37 0H9C8.44771 0 8 0.447715 8 1V6H1C0.447715 6 0 6.44772 0 7V12C0.00497631 16.8507 3.49573 20.9959 8.2748 21.8262C9.32821 27.3042 13.3326 31.7462 18.6724 33.36L17.1968 40H14.402C13.5843 39.9999 12.8489 40.4976 12.545 41.2568L10.145 47.2568C9.89834 47.873 9.97349 48.5715 10.3456 49.1212C10.7177 49.6708 11.3382 50.0001 12.002 50H33.998C34.6618 50.0001 35.2823 49.6708 35.6544 49.1212C36.0265 48.5715 36.1017 47.873 35.855 47.2568L33.455 41.2568C33.1511 40.4976 32.4157 39.9999 31.598 40H28.802L27.3266 33.36C32.6668 31.7461 36.6717 27.3041 37.7256 21.8258C42.5044 20.9953 45.9949 16.8504 46 12V7C46 6.44772 45.5523 6 45 6ZM8 19V19.747C4.47055 18.8302 2.00481 15.6466 2 12V8H8V19ZM12.002 48H33.998L31.598 42H14.402L12.002 48ZM19.2464 40L20.6264 33.794C21.4109 33.9256 22.2046 33.9944 23 34C23.7952 33.9943 24.5888 33.9258 25.3732 33.795L26.7524 40H19.2464ZM36 19V6V2H10V19C10 26.1797 15.8203 32 23 32C30.1797 32 36 26.1797 36 19ZM44 12C43.9952 15.6466 41.5294 18.8302 38 19.747V8H44V12ZM17 44C16.4477 44 16 44.4477 16 45C16 45.5523 16.4477 46 17 46H29C29.5523 46 30 45.5523 30 45C30 44.4477 29.5523 44 29 44H17Z" fill="#26BA7E"/>
</svg>
