<svg width="40" height="48" viewBox="0 0 40 48" fill="none" xmlns="http://www.w3.org/2000/svg">
<path fill-rule="evenodd" clip-rule="evenodd" d="M21.9999 9C21.9999 4.02944 26.0294 0 31 0C35.9706 0 40 4.02944 40 9C40 13.9706 35.9706 18 31 18C30.5387 17.9961 30.0787 17.9512 29.6254 17.8656L17.9999 35.3038V46H23C23.5522 46 24 46.4477 24 47C24 47.5523 23.5522 48 23 48H10.9999C10.4476 48 9.99991 47.5523 9.99991 47C9.99991 46.4477 10.4476 46 10.9999 46H15.9999V35.3038L0.167885 11.5546C-0.0366259 11.2478 -0.0556719 10.8533 0.118328 10.5281C0.292328 10.203 0.631134 10 0.999887 10H22.0643C22.0221 9.66833 22.0006 9.33435 21.9999 9ZM9.43651 21.8512L16.9999 33.1972L24.5382 21.8894C23.5745 21.7036 22.6301 21.4291 21.7169 21.0694C20.1462 20.4079 18.4657 20.0452 16.7619 20C15.2618 20.0193 13.7817 20.3477 12.4141 20.9648C11.4558 21.3649 10.4577 21.6621 9.43651 21.8512ZM25.7934 20.0062L25.762 20C24.6015 19.9279 23.4625 19.6532 22.3967 19.1884C20.6088 18.4451 18.6978 18.0421 16.7619 18C15.0147 18.0194 13.2897 18.3936 11.6915 19.1C10.5814 19.5912 9.3946 19.8866 8.18371 19.973L2.86949 12H31.1312L25.7934 20.0062ZM30.9358 15.9938C30.9569 15.9969 30.978 16 31 16C34.866 16 38 12.866 38 9C38 5.13401 34.866 2 31 2C27.134 2 24 5.13401 24 9C24.0018 9.33524 24.0316 9.66973 24.0892 10H33C33.3688 9.99999 33.7077 10.203 33.8817 10.5282C34.0557 10.8534 34.0366 11.2479 33.832 11.5548L30.877 15.9876C30.897 15.9881 30.9164 15.9909 30.9358 15.9938Z" fill="#26BA7E"/>
</svg>
