<svg width="50" height="50" viewBox="0 0 50 50" fill="none" xmlns="http://www.w3.org/2000/svg">
<path fill-rule="evenodd" clip-rule="evenodd" d="M49.4133 13.3135L47.9993 14.7285L49.4143 16.1425C50.1952 16.9235 50.1952 18.1897 49.4143 18.9707L48.0003 20.3847C47.6253 20.7598 47.1165 20.9706 46.5861 20.9706C46.0556 20.9706 45.5468 20.7598 45.1718 20.3847L39.515 14.7275L14.7274 39.5155L20.3841 45.1717C21.165 45.9527 21.165 47.2189 20.3841 47.9999L18.9701 49.4139C18.5951 49.7891 18.0863 49.9998 17.5559 49.9998C17.0254 49.9998 16.5166 49.7891 16.1416 49.4139L14.7276 47.9999L13.3136 49.4141C12.9385 49.7893 12.4298 50 11.8993 50C11.3688 50 10.8601 49.7893 10.485 49.4141L7.65682 46.5859L6.24223 47.9999C5.86715 48.375 5.35841 48.5858 4.82794 48.5858C4.29747 48.5858 3.78873 48.375 3.41365 47.9999L1.99966 46.5869C1.21877 45.8059 1.21877 44.5397 1.99966 43.7587L3.41405 42.3437L0.585669 39.5155C-0.195223 38.7345 -0.195223 37.4683 0.585669 36.6873L1.99966 35.2733L0.585669 33.8583C-0.195223 33.0773 -0.195223 31.8111 0.585669 31.0301L1.99966 29.6161C2.37474 29.241 2.88348 29.0302 3.41395 29.0302C3.94442 29.0302 4.45316 29.241 4.82824 29.6161L10.485 35.2733L35.2726 10.4853L29.6157 4.82808C28.8348 4.04705 28.8348 2.7809 29.6157 1.99988L31.0299 0.585874C31.4049 0.210748 31.9137 0 32.4441 0C32.9746 0 33.4834 0.210748 33.8584 0.585874L35.2724 1.99988L36.6864 0.585874C37.0615 0.210748 37.5702 0 38.1007 0C38.6312 0 39.1399 0.210748 39.515 0.585874L42.343 3.41388L43.7576 1.99988C44.5386 1.21898 45.8047 1.21898 46.5858 1.99988L47.9993 3.41388C48.7801 4.19533 48.7801 5.46162 47.9993 6.24308L46.5863 7.65708L49.4133 10.4853C50.1942 11.2663 50.1942 12.5325 49.4133 13.3135ZM45.1718 3.41388H45.1698L43.7574 4.82788L45.1724 6.24288L46.5863 4.82888L45.1718 3.41388ZM38.0994 1.99988H38.1008L47.9993 11.8999L46.5858 13.3149L43.108 9.83588L36.687 3.41388L38.0994 1.99988ZM3.41425 45.1729L4.82824 46.5869L6.24223 45.1729L4.82824 43.7589L3.41425 45.1729ZM11.8996 47.9999L7.82282 43.9247L4.82824 40.9295L1.99966 38.1015L3.41225 36.6875H3.41365L13.3136 46.5875L11.8996 47.9999ZM17.5562 47.9999L18.9707 46.5859L3.41365 31.0303H3.41225L1.99966 32.4443L17.5562 47.9999ZM13.3136 38.1015L11.8996 36.6875L36.6864 11.8999L38.1004 13.3139L13.3136 38.1015ZM31.0297 3.41388L46.5863 18.9707L47.9993 17.5565L32.4436 1.99988H32.4422L31.0297 3.41388Z" fill="#26BA7E"/>
</svg>
