<svg width="43" height="30" viewBox="0 0 43 30" fill="none" xmlns="http://www.w3.org/2000/svg">
<mask id="mask0" mask-type="alpha" maskUnits="userSpaceOnUse" x="0" y="0" width="43" height="30">
<path fill-rule="evenodd" clip-rule="evenodd" d="M0.027832 0.0222168H42.7262V29.8647H0.027832V0.0222168Z" fill="white"/>
</mask>
<g mask="url(#mask0)">
<path fill-rule="evenodd" clip-rule="evenodd" d="M23.3888 0.067945C21.7502 0.28377 20.5574 1.17911 19.9018 2.74552C19.1871 4.45348 19.5154 6.00503 20.5534 7.48231C22.1123 9.70028 23.617 11.9576 25.1825 14.1706C25.5916 14.7484 25.9665 15.3496 26.3868 15.9196C26.9421 16.6725 26.8076 17.5812 26.1004 18.1119C25.4431 18.6036 24.5527 18.4783 24.0327 17.7508C22.9906 16.293 21.9876 14.8049 20.9653 13.3326C19.8428 11.717 18.7162 10.1037 17.5901 8.49212C17.5414 8.42251 17.4657 8.37183 17.4021 8.31299C17.2908 8.08989 17.1246 7.92765 16.8918 7.84144C16.7723 7.76193 16.6522 7.68241 16.5329 7.60319C16.1468 7.29212 15.7277 7.06697 15.218 7.07134C14.5778 6.83018 13.9363 6.81183 13.295 7.06581C12.6116 7.10659 12.0446 7.40484 11.5544 7.87406C10.7462 8.47406 10.2102 9.26105 9.9754 10.2534C9.62566 11.0576 9.61792 11.8629 9.97368 12.6682C9.97425 12.6933 9.97855 12.7172 9.98514 12.7411C9.9582 12.9971 10.035 13.2126 10.2325 13.3798C10.2684 13.6239 10.4418 13.7969 10.5596 13.9949C10.9578 14.664 10.9478 15.2745 10.4983 15.9161V15.9164C10.2678 16.0699 10.0385 16.2231 9.80827 16.3778C9.51645 16.3783 9.22491 16.3783 8.9325 16.3783C8.59882 16.2237 8.33108 16.0023 8.10146 15.7011C6.11027 13.074 2.31509 13.2691 0.661885 16.134C-0.286695 17.7781 -0.147375 19.4672 0.922178 21.04C2.46129 23.304 4.01588 25.5592 5.57535 27.808C6.07329 28.5248 6.6879 29.1164 7.52841 29.4138C7.74771 29.6511 8.02721 29.6995 8.32964 29.6768L8.36146 29.687L8.395 29.6852C9.01392 29.934 9.63083 29.9177 10.2472 29.6768C10.547 29.6972 10.8239 29.645 11.0435 29.4144C13.68 28.3512 14.5176 24.905 12.8905 22.6731C12.701 22.4124 12.5207 22.145 12.3358 21.8803C12.2254 21.5963 12.0873 21.3298 11.8258 21.1553C11.7117 20.7953 11.4701 20.5064 11.2984 20.1778C11.2766 19.2144 11.5741 18.6982 12.3043 18.4335C12.9137 18.2142 13.5421 18.3761 13.9277 18.9228C14.9826 20.4155 16.0137 21.9269 17.0584 23.4292C17.4823 24.0379 17.9172 24.6397 18.3464 25.2449C18.4527 25.5598 18.6127 25.8344 18.8945 26.0209C18.9767 26.1444 19.059 26.2673 19.1407 26.3905C19.3709 26.929 19.7198 27.384 20.1048 27.815C20.5654 28.5624 21.2124 29.0794 22.0091 29.4144C22.2407 29.6147 22.505 29.7097 22.8112 29.6733L22.8447 29.6846L22.8794 29.6838C23.4963 29.9273 24.1124 29.913 24.7281 29.6768C25.0268 29.6957 25.3029 29.6444 25.5216 29.4126C27.3491 28.7829 28.5761 26.4126 28.1286 24.3892C27.9947 23.7816 27.7648 23.2224 27.4231 22.7034C26.9544 21.9944 27.1244 21.109 27.7378 20.6185C28.2848 20.1819 29.3489 20.2102 29.881 20.9916C31.0938 22.7727 32.3148 24.5477 33.5471 26.3142C34.0543 27.0411 34.5026 27.815 35.1052 28.4698C35.1823 28.554 35.28 28.6195 35.3683 28.6941C35.528 28.9081 35.7003 29.1033 35.9841 29.14C36.1524 29.2317 36.3212 29.3244 36.4886 29.4149C37.3558 30.0001 39.232 29.9957 40.0851 29.4068C41.632 28.6856 42.482 27.4507 42.695 25.7465C42.8882 24.204 42.156 23.008 41.3235 21.8258C39.6792 19.4884 38.0676 17.128 36.4442 14.7767C34.5407 12.0181 32.6375 9.26047 30.7369 6.50047C29.6622 4.94018 28.6242 3.35193 27.5065 1.82309C26.6316 0.626586 25.4534 0.0222168 24.0636 0.0222168C23.8438 0.0222168 23.6196 0.0373624 23.3888 0.067945Z" fill="#0092FF"/>
</g>
<mask id="mask1" mask-type="alpha" maskUnits="userSpaceOnUse" x="0" y="0" width="43" height="30">
<path fill-rule="evenodd" clip-rule="evenodd" d="M24.0639 0.0222168C23.8438 0.0222168 23.6196 0.0370712 23.3888 0.067945C21.7503 0.28377 20.5574 1.17911 19.9018 2.74552C19.1872 4.45348 19.5154 6.00532 20.5534 7.48231C22.112 9.70028 23.617 11.9576 25.1822 14.1706C25.5916 14.7484 25.9666 15.3496 26.3868 15.9196C26.9418 16.6722 26.8073 17.5812 26.1004 18.1119C25.4431 18.6036 24.5524 18.4783 24.0327 17.7508C22.9907 16.2927 21.9879 14.8049 20.9654 13.3323C19.8428 11.717 18.7165 10.1037 17.5902 8.49212C17.5411 8.42251 17.4657 8.37183 17.4021 8.3127C17.2906 8.08989 17.1246 7.92765 16.8918 7.84144C16.7723 7.76163 16.6522 7.68241 16.5329 7.6029C16.1468 7.29212 15.7277 7.06697 15.2177 7.07134C14.5779 6.83018 13.9363 6.81183 13.295 7.06581C12.6116 7.10629 12.0446 7.40484 11.5541 7.87406C10.7466 8.47406 10.2102 9.26105 9.97543 10.2534C9.62569 11.0576 9.61795 11.8629 9.97371 12.6682C9.97428 12.693 9.97829 12.7169 9.98517 12.7411C9.95823 12.9971 10.0351 13.2126 10.2329 13.3795C10.2684 13.6236 10.4418 13.7966 10.5597 13.9952C10.9578 14.664 10.9478 15.2745 10.4983 15.9161V15.9164C10.2678 16.0699 10.0385 16.2234 9.8083 16.3778C9.51647 16.3783 9.22465 16.3783 8.93282 16.3783C8.59885 16.2237 8.33111 16.0026 8.10149 15.7011C6.1103 13.074 2.31541 13.2691 0.661626 16.134C-0.286667 17.7781 -0.147347 19.4672 0.922206 21.04C2.46132 23.304 4.01563 25.5592 5.57538 27.8078C6.07332 28.5248 6.68793 29.1164 7.52844 29.4141C7.74774 29.6511 8.02724 29.6995 8.32939 29.6765L8.36149 29.6867L8.39503 29.6852C9.01395 29.9337 9.63085 29.9177 10.2472 29.6765C10.547 29.6972 10.824 29.645 11.0433 29.4144C13.68 28.3512 14.5177 24.905 12.8905 22.6731C12.7011 22.4124 12.5207 22.145 12.3361 21.8803C12.2252 21.5963 12.0873 21.3298 11.8259 21.1553C11.7118 20.795 11.4701 20.5067 11.2984 20.1778C11.2766 19.2144 11.5742 18.6982 12.3043 18.4335C12.9138 18.2142 13.5421 18.3761 13.9277 18.9228C14.9826 20.4155 16.0138 21.9269 17.0584 23.4292C17.4827 24.0379 17.9172 24.6397 18.3464 25.2449C18.4527 25.5598 18.6127 25.8344 18.8945 26.0209C18.977 26.1444 19.059 26.2673 19.1404 26.3902V26.3905V26.3902C19.3709 26.929 19.7198 27.384 20.1045 27.815C20.5655 28.5624 21.2125 29.0794 22.0088 29.4144C22.2407 29.6147 22.5051 29.7097 22.8112 29.6733L22.8445 29.6846L22.8794 29.6838C23.4963 29.9273 24.1124 29.913 24.7279 29.6765C25.0269 29.6957 25.3029 29.6447 25.5219 29.4126C27.3491 28.7829 28.5761 26.4126 28.1286 24.3892C27.9947 23.7813 27.7645 23.2224 27.4231 22.7037C26.9544 21.9944 27.1244 21.109 27.7379 20.6185C28.2848 20.1816 29.3489 20.2102 29.881 20.9916C31.0939 22.7724 32.3148 24.5477 33.5469 26.3142C34.0543 27.0411 34.5026 27.815 35.1052 28.4698C35.182 28.5543 35.2801 28.6195 35.3684 28.6938C35.5277 28.9081 35.7003 29.1033 35.9841 29.14C36.1524 29.2317 36.3212 29.3244 36.4887 29.4149C37.3558 30.0001 39.2321 29.996 40.0852 29.4068C41.6317 28.6856 42.4817 27.4507 42.695 25.7465C42.8882 24.2037 42.1558 23.008 41.3236 21.8258C39.6793 19.4884 38.0676 17.128 36.4442 14.7764C34.5408 12.0181 32.6376 9.26047 30.7367 6.50047C29.6623 4.94018 28.624 3.35193 27.5065 1.82309C26.6316 0.626294 25.4534 0.0222168 24.0639 0.0222168Z" fill="white"/>
</mask>
<g mask="url(#mask1)">
<path fill-rule="evenodd" clip-rule="evenodd" d="M-0.286667 30.0001H42.8882V0.0222168H-0.286667V30.0001Z" fill="#26BA7E"/>
</g>
</svg>
