<svg width="50" height="46" viewBox="0 0 50 46" fill="none" xmlns="http://www.w3.org/2000/svg">
<path fill-rule="evenodd" clip-rule="evenodd" d="M42 8H47C48.6569 8 50 9.34315 50 11V43C50 44.6569 48.6569 46 47 46H3C1.34315 46 0 44.6569 0 43V11C0 9.34315 1.34315 8 3 8H8V4C8 1.79086 9.79086 0 12 0H38C40.2091 0 42 1.79086 42 4V8ZM12 2C10.896 2.00132 10.0013 2.89598 10 4V8H40V4C39.9987 2.89598 39.104 2.00132 38 2H12ZM16 44H3C2.44772 44 2 43.5523 2 43V14H24V40H16V44ZM18 44H32V42H18V44ZM48 43C48 43.5523 47.5523 44 47 44H34V40H26V14H48V43ZM2 12H48V11C48 10.4477 47.5523 10 47 10H3C2.44772 10 2 10.4477 2 11V12ZM38 36C42.4183 36 46 32.4183 46 28C46 23.5817 42.4183 20 38 20C33.5817 20 30 23.5817 30 28C30 32.4183 33.5817 36 38 36ZM44 28C44 24.6863 41.3137 22 38 22C34.6878 22.0036 32.0036 24.6878 32 28C32 31.3137 34.6863 34 38 34C41.3137 34 44 31.3137 44 28ZM12 20C7.58172 20 4 23.5817 4 28C4 32.4183 7.58172 36 12 36C16.4183 36 20 32.4183 20 28C20 25.8783 19.1571 23.8434 17.6569 22.3431C16.1566 20.8429 14.1217 20 12 20ZM6 28C6 31.3137 8.68629 34 12 34C15.3122 33.9964 17.9964 31.3122 18 28C18 24.6863 15.3137 22 12 22C8.68629 22 6 24.6863 6 28Z" fill="#26BA7E"/>
</svg>
