<svg width="48" height="57" viewBox="0 0 48 57" fill="none" xmlns="http://www.w3.org/2000/svg">
<path d="M12 54.8492C11.4477 54.8492 11 55.2969 11 55.8492C11 56.4015 11.4477 56.8492 12 56.8492V54.8492ZM36 56.8492C36.5523 56.8492 37 56.4015 37 55.8492C37 55.2969 36.5523 54.8492 36 54.8492V56.8492ZM25 28.6033C25 28.051 24.5523 27.6033 24 27.6033C23.4477 27.6033 23 28.051 23 28.6033H25ZM23 55.8492C23 56.4015 23.4477 56.8492 24 56.8492C24.5523 56.8492 25 56.4015 25 55.8492H23ZM12 56.8492H36V54.8492H12V56.8492ZM23 28.6033V55.8492H25V28.6033H23Z" fill="#6FB98F"/>
<path fill-rule="evenodd" clip-rule="evenodd" d="M24 28.6033C26.2091 28.6033 28 26.9769 28 24.9706C28 22.9642 26.2091 21.3378 24 21.3378C21.7909 21.3378 20 22.9642 20 24.9706C20 26.9769 21.7909 28.6033 24 28.6033Z" stroke="#6FB98F" stroke-width="2" stroke-linecap="round" stroke-linejoin="round"/>
<path d="M18.1 28.9666L18.953 28.4448C18.9486 28.4374 18.944 28.4302 18.9393 28.423L18.1 28.9666ZM43.8 31.9636L43.3215 32.8417C43.3323 32.8476 43.3432 32.8533 43.3542 32.8587L43.8 31.9636ZM45.9 37.2311L46.7238 37.7981C46.7329 37.7848 46.7417 37.7714 46.7501 37.7577L45.9 37.2311ZM29.2 5.62595C29.2 3.78479 28.5513 2.42675 27.5289 1.54308C26.5343 0.683471 25.2847 0.357422 24.2 0.357422V2.35742C24.9153 2.35742 25.6657 2.57629 26.2211 3.05627C26.7486 3.51219 27.2 4.28841 27.2 5.62595H29.2ZM24.2 0.357422C23.1153 0.357422 21.8657 0.683471 20.8711 1.54308C19.8486 2.42675 19.2 3.78479 19.2 5.62595H21.2C21.2 4.28841 21.6513 3.51219 22.1789 3.05627C22.7343 2.57629 23.4847 2.35742 24.2 2.35742V0.357422ZM19.2 5.62595C19.2 7.34415 19.7252 10.4633 20.4885 13.1324C20.8716 14.4717 21.3317 15.7597 21.8478 16.7331C22.1041 17.2166 22.3995 17.6713 22.7418 18.0184C23.0736 18.3549 23.5653 18.705 24.2 18.705V16.705C24.3347 16.705 24.3264 16.7769 24.166 16.6142C24.0161 16.4622 23.8271 16.1968 23.6147 15.7962C23.1933 15.0014 22.7784 13.8656 22.4114 12.5825C21.6748 10.0068 21.2 7.08643 21.2 5.62595H19.2ZM24.2 18.705C24.8347 18.705 25.3264 18.3549 25.6581 18.0184C26.0005 17.6713 26.2959 17.2166 26.5522 16.7331C27.0683 15.7597 27.5284 14.4717 27.9114 13.1324C28.6748 10.4633 29.2 7.34415 29.2 5.62595H27.2C27.2 7.08643 26.7252 10.0068 25.9885 12.5825C25.6216 13.8656 25.2067 15.0014 24.7853 15.7962C24.5729 16.1968 24.3839 16.4622 24.234 16.6142C24.0736 16.7769 24.0653 16.705 24.2 16.705V18.705ZM18.9393 28.423C18.5844 27.875 17.977 27.68 17.5397 27.5982C17.0602 27.5085 16.5007 27.503 15.9236 27.5417C14.7605 27.6198 13.3205 27.8936 11.8586 28.2573C8.94699 28.9816 5.72884 30.1189 4.12151 30.9947L5.07848 32.7509C6.47115 31.992 9.503 30.9042 12.3414 30.1981C13.7545 29.8466 15.0645 29.6039 16.0576 29.5372C16.5587 29.5036 16.9288 29.5186 17.172 29.5641C17.4574 29.6175 17.3656 29.6722 17.2607 29.5102L18.9393 28.423ZM4.12151 30.9947C2.4599 31.9002 1.48088 33.0414 1.12503 34.3033C0.770718 35.5598 1.08561 36.7559 1.64985 37.6669L3.35014 36.6138C3.01438 36.0717 2.87927 35.4514 3.04996 34.8461C3.21911 34.2462 3.74009 33.4802 5.07848 32.7509L4.12151 30.9947ZM1.64985 37.6669C2.216 38.581 3.16494 39.4179 4.4681 39.7642C5.78262 40.1137 7.34096 39.9338 9.06645 39.0239L8.13354 37.2548C6.75904 37.9797 5.71737 38.0269 4.98189 37.8314C4.23505 37.6329 3.68399 37.1528 3.35014 36.6138L1.64985 37.6669ZM9.06645 39.0239C10.7112 38.1566 13.4032 36.2172 15.5532 34.2992C16.6288 33.3397 17.6149 32.3451 18.2758 31.4564C18.6031 31.0164 18.8889 30.5521 19.0496 30.0942C19.2044 29.6533 19.3072 29.0236 18.953 28.4448L17.2469 29.4884C17.1428 29.3182 17.2331 29.2306 17.1625 29.4318C17.0978 29.6161 16.9454 29.894 16.671 30.2628C16.1289 30.9918 15.2587 31.8817 14.2218 32.8067C12.1468 34.6578 9.58881 36.4874 8.13354 37.2548L9.06645 39.0239ZM44.2785 31.0855C42.6712 30.2097 39.453 29.0724 36.5414 28.3481C35.0795 27.9844 33.6395 27.7106 32.4764 27.6325C31.8993 27.5938 31.3398 27.5993 30.8603 27.689C30.423 27.7708 29.8156 27.9658 29.4607 28.5138L31.1393 29.601C31.0344 29.763 30.9426 29.7083 31.228 29.6549C31.4712 29.6094 31.8413 29.5944 32.3424 29.628C33.3355 29.6947 34.6455 29.9374 36.0586 30.2889C38.897 30.995 41.9288 32.0828 43.3215 32.8417L44.2785 31.0855ZM29.4607 28.5138C29.0809 29.1001 29.2034 29.747 29.3582 30.173C29.5222 30.6245 29.8113 31.0861 30.1409 31.5252C30.8077 32.4135 31.8008 33.4176 32.8821 34.388C35.0393 36.3241 37.7363 38.2927 39.3424 39.1193L40.2576 37.341C38.8637 36.6237 36.3107 34.7779 34.2179 32.8996C33.1742 31.9628 32.2923 31.0596 31.7403 30.3245C31.4606 29.9519 31.3043 29.6728 31.2379 29.49C31.1622 29.2817 31.2691 29.4006 31.1393 29.601L29.4607 28.5138ZM39.3424 39.1193C41.018 39.9817 42.5435 40.1556 43.8469 39.8236C45.1397 39.4943 46.1073 38.6939 46.7238 37.7981L45.0762 36.6642C44.6927 37.2215 44.1103 37.6926 43.3531 37.8855C42.6065 38.0757 41.582 38.0226 40.2576 37.341L39.3424 39.1193ZM46.7501 37.7577C47.3062 36.86 47.654 35.6469 47.3166 34.375C46.9735 33.0819 45.9768 31.9306 44.2458 31.0685L43.3542 32.8587C44.7232 33.5406 45.2265 34.2964 45.3834 34.8879C45.546 35.5005 45.3938 36.1492 45.0499 36.7046L46.7501 37.7577Z" fill="#6FB98F"/>
</svg>
