<svg width="42" height="48" viewBox="0 0 42 48" fill="none" xmlns="http://www.w3.org/2000/svg">
<path fill-rule="evenodd" clip-rule="evenodd" d="M10 28C11.3334 28 20 15.523 20 10C20 4.47715 15.5228 0 10 0C4.47715 0 0 4.47715 0 10C0 15.523 8.6662 28 10 28ZM32 36C33.3334 36 42 23.523 42 18C42 12.4772 37.5228 8 32 8C26.4772 8 22 12.4772 22 18C22 23.523 30.6662 36 32 36ZM32 40C30.682 39.9999 29.4488 40.6502 28.7044 41.7378L13.9618 36.3778C13.966 36.3336 13.9719 36.29 13.9779 36.2463C13.9888 36.1654 13.9998 36.0846 13.9998 36.0008C14.0032 34.0191 12.5576 32.3326 10.5987 32.033C8.63984 31.7333 6.75613 32.9105 6.16699 34.8026C5.57784 36.6947 6.46022 38.7332 8.24294 39.5986C10.0257 40.464 12.1732 39.8963 13.2954 38.263L28.038 43.623C28.0338 43.6672 28.0279 43.7108 28.0219 43.7545L28.0219 43.7546C28.011 43.8354 28 43.9162 28 44C28 46.2091 29.7909 48 32 48C34.2091 48 36 46.2091 36 44C36 41.7909 34.2091 40 32 40ZM10 38C8.89543 38 8 37.1046 8 36C8 34.8954 8.89543 34 10 34C11.1046 34 12 34.8954 12 36C11.9988 37.1041 11.1041 37.9988 10 38ZM30 44C30 45.1046 30.8954 46 32 46C33.1041 45.9988 33.9988 45.1041 34 44C34 42.8954 33.1046 42 32 42C30.8954 42 30 42.8954 30 44ZM40 18C39.995 13.5838 36.4162 10.005 32 10C27.5838 10.005 24.005 13.5838 24 18C24 21.9774 29.5922 30.6386 32 33.4174C34.4078 30.6386 40 21.9766 40 18ZM36 18C36 15.7909 34.2091 14 32 14C29.7909 14 28 15.7909 28 18C28 20.2091 29.7909 22 32 22C34.2091 22 36 20.2091 36 18ZM32 16C30.8954 16 30 16.8954 30 18C30.0012 19.1041 30.8959 19.9988 32 20C33.1046 20 34 19.1046 34 18C34 16.8954 33.1046 16 32 16ZM18 10C17.995 5.58378 14.4162 2.00496 10 2C5.58378 2.00496 2.00496 5.58378 2 10C2 13.9766 7.5918 22.6386 10 25.4174C12.4078 22.6386 18 13.9766 18 10ZM14 10C14 7.79086 12.2091 6 10 6C7.79086 6 6 7.79086 6 10C6 12.2091 7.79086 14 10 14C12.2091 14 14 12.2091 14 10ZM10 8C8.89543 8 8 8.89543 8 10C8.00121 11.1041 8.89593 11.9988 10 12C11.1046 12 12 11.1046 12 10C12 8.89543 11.1046 8 10 8Z" fill="#26BA7E"/>
</svg>
