<svg width="62" height="57" viewBox="0 0 62 57" fill="none" xmlns="http://www.w3.org/2000/svg">
<path d="M31.0022 38.6098C31.5545 38.6086 32.0012 38.1599 32 37.6076C31.9988 37.0553 31.5501 36.6086 30.9978 36.6098L31.0022 38.6098ZM41.8148 21.1826C42.0718 21.6715 42.6764 21.8595 43.1652 21.6025C43.6541 21.3456 43.8421 20.741 43.5852 20.2521L41.8148 21.1826ZM32 1.28198C32 0.729698 31.5523 0.281982 31 0.281982C30.4477 0.281982 30 0.729698 30 1.28198H32ZM30 6.73116C30 7.28345 30.4477 7.73116 31 7.73116C31.5523 7.73116 32 7.28345 32 6.73116H30ZM11 27.7115C11.5523 27.7115 12 27.2638 12 26.7115C12 26.1592 11.5523 25.7115 11 25.7115V27.7115ZM3 25.7115C2.44772 25.7115 2 26.1592 2 26.7115C2 27.2638 2.44772 27.7115 3 27.7115V25.7115ZM11.6723 5.99088C11.2635 5.61957 10.631 5.65 10.2597 6.05884C9.88842 6.46768 9.91885 7.10011 10.3277 7.47142L11.6723 5.99088ZM16.3277 12.9206C16.7365 13.2919 17.369 13.2615 17.7403 12.8526C18.1116 12.4438 18.0812 11.8114 17.6723 11.4401L16.3277 12.9206ZM51.5723 7.56221C51.9812 7.19091 52.0116 6.55847 51.6403 6.14963C51.269 5.7408 50.6365 5.71037 50.2277 6.08168L51.5723 7.56221ZM44.3277 11.44C43.9188 11.8113 43.8884 12.4438 44.2597 12.8526C44.631 13.2615 45.2635 13.2919 45.6723 12.9206L44.3277 11.44ZM30.9978 36.6098C24.9751 36.6233 19.9721 32.6383 19.1006 27.4044L17.1278 27.7329C18.1825 34.0672 24.1426 38.6251 31.0022 38.6098L30.9978 36.6098ZM19.1006 27.4044C18.2326 22.1914 21.6892 17.0773 27.423 15.4794L26.8862 13.5528C20.3044 15.387 16.0695 21.3777 17.1278 27.7329L19.1006 27.4044ZM27.423 15.4794C33.174 13.8768 39.2813 16.3621 41.8148 21.1826L43.5852 20.2521C40.5694 14.5141 33.4508 11.7234 26.8862 13.5528L27.423 15.4794ZM30 1.28198V6.73116H32V1.28198H30ZM11 25.7115H3V27.7115H11V25.7115ZM10.3277 7.47142L16.3277 12.9206L17.6723 11.4401L11.6723 5.99088L10.3277 7.47142ZM50.2277 6.08168L44.3277 11.44L45.6723 12.9206L51.5723 7.56221L50.2277 6.08168Z" fill="#6FB98F"/>
<path d="M55 29.3444C54.4477 29.3444 54 29.7921 54 30.3444C54 30.8967 54.4477 31.3444 55 31.3444V29.3444ZM49 36.61C48.4477 36.61 48 37.0577 48 37.61C48 38.1622 48.4477 38.61 49 38.61V36.61ZM57 51.1411C56.4477 51.1411 56 51.5888 56 52.1411C56 52.6934 56.4477 53.1411 57 53.1411V51.1411ZM45 43.8755C44.4477 43.8755 44 44.3232 44 44.8755C44 45.4278 44.4477 45.8755 45 45.8755V43.8755ZM1 43.8755C0.447715 43.8755 0 44.3232 0 44.8755C0 45.4278 0.447715 45.8755 1 45.8755V43.8755ZM33 44.8755V45.8755V44.8755ZM33 54.7739C32.4477 54.7739 32 55.2216 32 55.7739C32 56.3262 32.4477 56.7739 33 56.7739V54.7739ZM1 36.6099C0.447715 36.6099 0 37.0576 0 37.6099C0 38.1622 0.447715 38.6099 1 38.6099V36.6099ZM37 25.7115C36.4477 25.7115 36 26.1593 36 26.7115C36 27.2638 36.4477 27.7115 37 27.7115V25.7115ZM55 31.3444C56.7496 31.3444 58 32.6116 58 33.9772H60C60 31.3301 57.6686 29.3444 55 29.3444V31.3444ZM58 33.9772C58 35.3428 56.7496 36.61 55 36.61V38.61C57.6686 38.61 60 36.6242 60 33.9772H58ZM55 36.61H49V38.61H55V36.61ZM57 53.1411C59.6686 53.1411 62 51.1554 62 48.5083H60C60 49.8739 58.7496 51.1411 57 51.1411V53.1411ZM62 48.5083C62 45.8613 59.6686 43.8755 57 43.8755V45.8755C58.7496 45.8755 60 47.1427 60 48.5083H62ZM57 43.8755H45V45.8755H57V43.8755ZM1 45.8755H33V43.8755H1V45.8755ZM33 45.8755C35.8542 45.8755 38 47.9559 38 50.3247H40C40 46.6745 36.7732 43.8755 33 43.8755V45.8755ZM38 50.3247C38 52.6935 35.8542 54.7739 33 54.7739V56.7739C36.7732 56.7739 40 53.9749 40 50.3247H38ZM1 38.6099H37V36.6099H1V38.6099ZM37 38.6099C40.7732 38.6099 44 35.8109 44 32.1607H42C42 34.5295 39.8542 36.6099 37 36.6099V38.6099ZM44 32.1607C44 28.5105 40.7732 25.7115 37 25.7115V27.7115C39.8542 27.7115 42 29.7919 42 32.1607H44Z" fill="#6FB98F"/>
</svg>
