<svg width="50" height="44" viewBox="0 0 50 44" fill="none" xmlns="http://www.w3.org/2000/svg">
<path fill-rule="evenodd" clip-rule="evenodd" d="M20.8522 7.99956H47C48.6569 7.99956 50 9.34272 50 10.9996V41C50 42.6568 48.6569 44 47 44H3C1.34315 44 0 42.6568 0 41V10.9996C0 9.34272 1.34315 7.99956 3 7.99956H15.1478L7.375 1.78208C6.9435 1.4369 6.87352 0.807271 7.2187 0.375765C7.56388 -0.0557401 8.1935 -0.125719 8.625 0.219463L18 7.71956L27.375 0.219263C27.6541 -0.00403045 28.0311 -0.0614647 28.364 0.0685956C28.697 0.198656 28.9352 0.496451 28.989 0.849805C29.0429 1.20316 28.9041 1.55839 28.625 1.78168L20.8522 7.99956ZM47.04 42C47.57 41.9994 47.9995 41.5699 48 41.04V10.9596C47.9995 10.4296 47.57 10.0001 47.04 9.99958H2.96C2.43004 10.0001 2.00055 10.4296 2 10.9596V41.04C2.00055 41.5699 2.43004 41.9994 2.96 42H47.04ZM44 16.9997C44 17.552 43.5523 17.9997 43 17.9997H37C36.4477 17.9997 36 17.552 36 16.9997C36 16.4474 36.4477 15.9997 37 15.9997H43C43.5523 15.9997 44 16.4474 44 16.9997ZM43 23.9998C43.5523 23.9998 44 23.552 44 22.9997C44 22.4475 43.5523 21.9997 43 21.9997H37C36.4477 21.9997 36 22.4475 36 22.9997C36 23.552 36.4477 23.9998 37 23.9998H43ZM30 13.9996H8C6.89543 13.9996 6 14.8951 6 15.9997V35.9999C6 37.1045 6.89543 37.9999 8 37.9999H30C31.1046 37.9999 32 37.1045 32 35.9999V15.9997C32 14.8951 31.1046 13.9996 30 13.9996ZM8 35.9999H30V15.9997H8V35.9999ZM40 29.9998C37.7909 29.9998 36 31.7907 36 33.9999C36 36.209 37.7909 37.9999 40 37.9999C42.2091 37.9999 44 36.209 44 33.9999C44 31.7907 42.2091 29.9998 40 29.9998ZM38 33.9999C38 35.1045 38.8954 35.9999 40 35.9999C41.104 35.9986 41.9987 35.1039 42 33.9999C42 32.8953 41.1046 31.9999 40 31.9999C38.8954 31.9999 38 32.8953 38 33.9999Z" fill="#26BA7E"/>
</svg>
